<svg xmlns="http://www.w3.org/2000/svg" width="708" height="84" viewBox="0 0 708 84"><path fill="#fff" d="M51.80 51.40Q53.50 46.10 53.50 41.30L53.50 41.30Q53.50 32.20 47.70 26.50L47.70 26.50Q44.20 23.00 39.30 21.05Q34.40 19.10 29.20 19.10L29.20 19.10Q25.70 19.10 22.40 20.00L22.40 20.00Q23.60 24.30 26.40 27.80Q29.20 31.30 34 36.00L34 36.00Q40.20 42.00 51.80 51.40L51.80 51.40ZM26.10 62.50Q28.70 63.50 31.80 63.50L31.80 63.50Q36.20 63.50 41 61.50L41 61.50L36.90 58.00Q30 52.20 25.45 47.85Q20.90 43.50 17.20 38.05Q13.50 32.60 12.40 26.70L12.40 26.70Q9.80 31.60 9.80 37.40L9.80 37.40Q9.80 42.70 11.90 47.85Q14 53.00 17.70 56.90Q21.40 60.80 26.10 62.50L26.10 62.50ZM61 58.10Q63.90 60.20 65.20 61.50Q66.50 62.80 66.50 64.90L66.50 64.90Q66.50 67.70 64.15 70.40Q61.80 73.10 59 73.10L59 73.10Q57.30 73.10 56 72.40Q54.70 71.70 53 70.30L53 70.30Q50.80 68.50 49.50 68.00L49.50 68.00Q48.70 67.80 48.30 67.80L48.30 67.80Q47.20 67.80 45.95 68.45Q44.70 69.10 42.80 70.40L42.80 70.40Q40.10 72.10 39.50 72.40L39.50 72.40Q33 75.50 26.60 75.50L26.60 75.50Q18.50 75.50 12.10 70.70Q5.70 65.90 2.60 57.50L2.60 57.50Q0.40 51.60 0.40 45.30L0.40 45.30Q0.40 36.80 4.25 28.90Q8.10 21.00 15.20 14.90L15.20 14.90Q20.20 10.70 24.80 8.65Q29.40 6.60 34.90 6.60L34.90 6.60Q41.40 6.60 47.60 9.20Q53.80 11.80 57.80 16.40L57.80 16.40Q63.80 23.40 63.80 33.60L63.80 33.60Q63.80 35.80 63.50 38.10L63.50 38.10Q62.70 45.40 60.10 51.10L60.10 51.10Q59.50 52.40 59.05 53.45Q58.60 54.50 58.60 55.10L58.60 55.10Q58.60 55.80 59.10 56.45Q59.60 57.10 61 58.10L61 58.10ZM99.90 25.50Q100 23.50 102.75 21.95Q105.50 20.40 108.30 20.40L108.30 20.40Q109.90 20.40 110.90 21.05Q111.90 21.70 111.80 23.10L111.80 23.10Q111.60 26.90 111.60 29.20L111.60 29.20Q111.10 42.20 109.85 51.30Q108.60 60.40 104.30 68.40Q100 76.40 91.50 78.90L91.50 78.90Q88.60 79.70 86.00 79.70L86.00 79.70Q79.60 79.70 74.75 75.90Q69.90 72.10 69.20 65.60L69.20 65.60Q69.00 63.00 69.00 61.70L69.00 61.70Q69.00 54.80 71.10 47.60Q73.20 40.40 77.20 30.20L77.20 30.20Q78.40 27.50 79.90 23.30L79.90 23.30Q80.50 21.60 82.95 20.45Q85.40 19.30 87.80 19.30L87.80 19.30Q89.40 19.30 90.40 19.95Q91.40 20.60 91.40 21.80L91.40 21.80Q91.40 22.20 91.20 23.00L91.20 23.00Q89.20 28.80 88.10 31.70L88.10 31.70Q85.20 39.80 83.60 45.25Q82.00 50.70 81.40 56.40L81.40 56.40Q81.20 58.80 81.20 60.20L81.20 60.20Q81.20 66.10 84.10 68.70L84.10 68.70Q85.00 69.60 86.50 70.35Q88.00 71.10 89.30 71.20L89.30 71.20L90.10 71.40Q90.20 71.40 90.50 71.10L90.50 71.10Q93.00 69.50 94.55 65.65Q96.10 61.80 96.60 58.80Q97.10 55.80 98.00 49.30L98.00 49.30Q98.70 44.00 99.15 37.70Q99.60 31.40 99.90 25.50L99.90 25.50ZM154.60 68.70Q156.10 69.20 156.10 70.50L156.10 70.50Q156.10 72.10 154.20 74.00L154.20 74.00Q152.10 76.10 148.80 76.10L148.80 76.10Q147.20 76.10 146.10 75.70L146.10 75.70Q140.80 74.00 136.50 74.00L136.50 74.00Q129 74.00 121.20 78.80L121.20 78.80Q119.90 79.70 118.05 80.25Q116.20 80.80 114.60 80.80L114.60 80.80Q113.10 80.80 112.20 80.25Q111.30 79.70 111.30 78.50L111.30 78.50Q111.30 77.80 111.50 77.30L111.50 77.30Q114.40 69.20 116.15 62.70Q117.90 56.20 118.50 49.50L118.50 49.50Q119.40 40.50 119.40 36.30L119.40 36.30Q119.40 25.20 115.10 19.30L115.10 19.30Q114.60 18.70 114.60 17.70L114.60 17.70Q114.60 15.70 117.40 13.95Q120.20 12.20 122.90 12.20L122.90 12.20Q124.70 12.20 125.50 13.00L125.50 13.00Q126.80 13.50 127.20 14.60L127.20 14.60Q129.70 21.20 134.10 25.75Q138.50 30.30 144.50 30.30L144.50 30.30Q145.60 30.30 147.80 29.90L147.80 29.90Q149.20 29.70 149.60 29.70L149.60 29.70Q151.30 29.70 152.15 30.45Q153 31.20 153 32.50L153 32.50Q153 33.90 151.85 35.30Q150.70 36.70 148.80 37.30L148.80 37.30Q144.70 38.70 140.60 38.70L140.60 38.70Q135.70 38.70 131.20 36.70L131.20 36.70Q131 42.30 130.70 45.10L130.70 45.10L130 51.40Q133.90 50.70 137.80 50.20L137.80 50.20L139.20 50.10Q143.20 50.10 143.20 52.80L143.20 52.80Q143.20 54.60 141.20 56.00Q139.20 57.40 137.10 57.80L137.10 57.80Q134 58.40 128.60 59.10L128.60 59.10Q127.50 64.00 126.20 68.30L126.20 68.30Q132.80 65.90 139.60 65.90L139.60 65.90Q147.10 65.90 154.60 68.70L154.60 68.70ZM197.90 22.20Q195.50 40.40 195.50 56.50L195.50 56.50Q195.50 64.30 196.10 72.30L196.10 72.30Q196.30 72.90 196.30 73.30L196.30 73.30Q196.30 73.60 196.10 74.20L196.10 74.20Q196.10 74.30 196.05 74.30Q196 74.30 196 74.30L196 74.30L196 74.50Q195.40 76.20 193.20 77.45Q191 78.70 188.50 78.90L188.50 78.90Q184.50 79.30 183.70 76.80L183.70 76.80Q180.20 67.40 172.60 50.80L172.60 50.80L171.40 48.00Q170.60 60.50 170.40 74.70L170.40 74.70Q170.40 76.80 167.60 78.45Q164.80 80.10 161.90 80.10L161.90 80.10Q160.10 80.10 159 79.40Q157.90 78.70 158 77.10L158 77.10Q158.60 49.90 161.90 25.60L161.90 25.60L162 25.20Q161.80 23.00 164.70 21.20Q167.60 19.40 170.50 19.40L170.50 19.40Q173.50 19.40 174.20 21.40L174.20 21.40Q177.40 30.10 183.70 43.80L183.70 43.80Q184.30 34.40 185.80 24.70L185.80 24.70Q186.10 22.70 189 21.15Q191.90 19.60 194.70 19.60L194.70 19.60Q198.30 19.60 197.90 22.20L197.90 22.20ZM231.90 19.70Q234.00 19.50 235.15 20.20Q236.30 20.90 237.60 22.90L237.60 22.90Q238.40 24.20 238.40 25.10L238.40 25.10Q238.40 27.30 235.60 27.70L235.60 27.70L232.10 28.10Q227.20 28.80 226.90 28.80L226.90 28.80Q225.20 44.80 224.20 56.60Q223.20 68.40 222.90 79.90L222.90 79.90Q222.80 81.30 221.75 82.00Q220.70 82.70 219.00 82.70L219.00 82.70Q216.00 82.70 213.05 81.05Q210.10 79.40 210.20 77.30L210.20 77.30Q210.50 66.70 211.40 55.65Q212.30 44.60 213.80 30.00L213.80 30.00L207.50 30.80Q206.10 30.90 205.35 30.65Q204.60 30.40 203.90 29.50Q203.20 28.60 202.50 27.50L202.50 27.50Q201.70 26.40 201.70 25.30L201.70 25.30Q201.70 24.40 202.40 23.70Q203.10 23.00 204.50 22.80L204.50 22.80Q206.70 22.50 209.60 22.10L209.60 22.10L214.70 21.40L216.50 4.10Q216.80 1.30 220.60 1.30L220.60 1.30Q223.60 1.30 226.45 2.95Q229.30 4.60 229.10 6.70L229.10 6.70L227.80 20.10Q230.60 19.90 231.90 19.70L231.90 19.70ZM241.50 25.50Q241.60 23.50 244.40 21.95Q247.20 20.40 250.00 20.40L250.00 20.40Q251.60 20.40 252.60 21.05Q253.60 21.70 253.50 23.10L253.50 23.10L250.60 77.40Q250.50 79.50 247.70 81.05Q244.90 82.60 242.10 82.60L242.10 82.60Q238.40 82.60 238.50 79.70L238.50 79.70L241.50 25.50ZM241.30 12.30Q241.10 13.70 242.05 14.40Q243.00 15.10 244.60 15.10L244.60 15.10Q247.30 15.10 250.10 13.60Q252.90 12.10 253.20 10.00L253.20 10.00Q254.00 5 254.30 2.50L254.30 2.50Q254.70 0 251.20 0L251.20 0Q248.50 0 245.60 1.50Q242.70 3 242.50 4.90L242.50 4.90L241.30 12.30ZM295.10 22.20Q292.70 40.40 292.70 56.50L292.70 56.50Q292.70 64.30 293.30 72.30L293.30 72.30Q293.50 72.90 293.50 73.30L293.50 73.30Q293.50 73.60 293.30 74.20L293.30 74.20Q293.30 74.30 293.25 74.30Q293.20 74.30 293.20 74.30L293.20 74.30L293.20 74.50Q292.60 76.20 290.40 77.45Q288.20 78.70 285.70 78.90L285.70 78.90Q281.70 79.30 280.90 76.80L280.90 76.80Q277.40 67.40 269.80 50.80L269.80 50.80L268.60 48.00Q267.80 60.50 267.60 74.70L267.60 74.70Q267.60 76.80 264.80 78.45Q262 80.10 259.10 80.10L259.10 80.10Q257.30 80.10 256.20 79.40Q255.10 78.70 255.20 77.10L255.20 77.10Q255.80 49.90 259.10 25.60L259.10 25.60L259.20 25.20Q259 23.00 261.90 21.20Q264.80 19.40 267.70 19.40L267.70 19.40Q270.70 19.40 271.40 21.40L271.40 21.40Q274.60 30.10 280.90 43.80L280.90 43.80Q281.50 34.40 283 24.70L283 24.70Q283.30 22.70 286.20 21.15Q289.10 19.60 291.90 19.60L291.90 19.60Q295.50 19.60 295.10 22.20L295.10 22.20ZM361 2Q362.10 2.70 362.10 5.40L362.10 5.40Q362.10 7.90 361.30 11.70L361.30 11.70Q360.90 14.10 360.90 14.40L360.90 14.40Q360.60 22.30 359.90 28.40L359.90 28.40Q358 46.60 355.50 57.80L355.50 57.80Q354.20 63.60 353.15 67.25Q352.10 70.90 349.90 74.70Q347.70 78.50 344.40 80.10L344.40 80.10Q343.10 80.70 342.10 80.70L342.10 80.70Q339.30 80.70 338.40 76.65Q337.50 72.60 337.50 66.40L337.50 66.40L337.50 64.00Q337.50 63.40 337.55 62.60Q337.60 61.80 337.50 61.00L337.50 61.00Q336.70 47.60 334.40 31.80L334.40 31.80Q333.10 22.20 332.40 17.90L332.40 17.90Q331.80 14.10 331.80 12.30L331.80 12.30Q331.80 8.80 333.70 6.10L333.70 6.10Q334.80 4.50 336.25 3.30Q337.70 2.10 339.10 2.10L339.10 2.10Q340.30 2.10 341.10 3.20L341.10 3.20Q341.80 4.10 342.10 5.70Q342.40 7.30 342.60 10.10L342.60 10.10Q342.60 11.40 342.80 12.80L342.80 12.80Q343.60 17.70 345.10 25.30L345.10 25.30Q347.10 34.60 347.90 40.80L347.90 40.80Q348.10 38.40 348.30 33.80L348.30 33.80Q348.50 28.10 348.90 23.90Q349.30 19.70 350.20 15.60L350.20 15.60Q350.50 13.80 351.85 10.35Q353.20 6.90 355.15 4.15Q357.10 1.40 359.20 1.40L359.20 1.40Q360.10 1.40 361 2L361 2ZM389.30 42.00L386.60 48.90L385.80 50.90L392.80 56.80L392.10 53.90Q391.40 51.10 389.30 42.00L389.30 42.00ZM398 19.70Q399.40 28.40 401.55 37.35Q403.70 46.30 406.80 57.90L406.80 57.90Q409.70 68.90 410.60 72.50L410.60 72.50Q410.70 72.80 410.70 73.40L410.70 73.40Q410.70 75.80 408 77.55Q405.30 79.30 402.40 79.30L402.40 79.30Q400 79.30 398.70 78.00L398.70 78.00Q395.80 74.90 392.60 72.10Q389.40 69.30 384.20 65.20L384.20 65.20L380.90 62.50Q376.70 71.50 374.40 75.80L374.40 75.80Q373.70 77.30 370.75 78.55Q367.80 79.80 365.30 79.80L365.30 79.80Q362.50 79.80 362.50 78.00L362.50 78.00Q362.50 77.50 362.80 76.80L362.80 76.80Q365.80 69.40 369.90 59.80L369.90 59.80L372 54.70Q369.50 52.20 369.50 52.20L369.50 52.20Q368.80 51.50 368.80 50.60L368.80 50.60Q368.80 48.90 371 47.35Q373.20 45.80 375.90 45.30L375.90 45.30Q380.70 33.80 384.90 21.90L384.90 21.90Q385.30 20.50 387.45 19.45Q389.60 18.40 392 18.10L392 18.10Q393.70 17.60 394.90 17.60L394.90 17.60Q397.70 17.60 398 19.70L398 19.70ZM452.50 22.20Q450.10 40.40 450.10 56.50L450.10 56.50Q450.10 64.30 450.70 72.30L450.70 72.30Q450.90 72.90 450.90 73.30L450.90 73.30Q450.90 73.60 450.70 74.20L450.70 74.20Q450.70 74.30 450.65 74.30Q450.60 74.30 450.60 74.30L450.60 74.30L450.60 74.50Q450 76.20 447.80 77.45Q445.60 78.70 443.10 78.90L443.10 78.90Q439.10 79.30 438.30 76.80L438.30 76.80Q434.80 67.40 427.20 50.80L427.20 50.80L426 48.00Q425.20 60.50 425 74.70L425 74.70Q425 76.80 422.20 78.45Q419.40 80.10 416.50 80.10L416.50 80.10Q414.70 80.10 413.60 79.40Q412.50 78.70 412.60 77.10L412.60 77.10Q413.20 49.90 416.50 25.60L416.50 25.60L416.60 25.20Q416.40 23.00 419.30 21.20Q422.20 19.40 425.10 19.40L425.10 19.40Q428.10 19.40 428.80 21.40L428.80 21.40Q432 30.10 438.30 43.80L438.30 43.80Q438.90 34.40 440.40 24.70L440.40 24.70Q440.70 22.70 443.60 21.15Q446.50 19.60 449.30 19.60L449.30 19.60Q452.90 19.60 452.50 22.20L452.50 22.20ZM493.80 22.20Q491.40 40.40 491.40 56.50L491.40 56.50Q491.40 64.30 492 72.30L492 72.30Q492.20 72.90 492.20 73.30L492.20 73.30Q492.20 73.60 492 74.20L492 74.20Q492 74.30 491.95 74.30Q491.90 74.30 491.90 74.30L491.90 74.30L491.90 74.50Q491.30 76.20 489.10 77.45Q486.90 78.70 484.40 78.90L484.40 78.90Q480.40 79.30 479.60 76.80L479.60 76.80Q476.10 67.40 468.50 50.80L468.50 50.80L467.30 48.00Q466.50 60.50 466.30 74.70L466.30 74.70Q466.30 76.80 463.50 78.45Q460.70 80.10 457.80 80.10L457.80 80.10Q456 80.10 454.90 79.40Q453.80 78.70 453.90 77.10L453.90 77.10Q454.50 49.90 457.80 25.60L457.80 25.60L457.90 25.20Q457.70 23.00 460.60 21.20Q463.50 19.40 466.40 19.40L466.40 19.40Q469.40 19.40 470.10 21.40L470.10 21.40Q473.30 30.10 479.60 43.80L479.60 43.80Q480.20 34.40 481.70 24.70L481.70 24.70Q482 22.70 484.90 21.15Q487.80 19.60 490.60 19.60L490.60 19.60Q494.20 19.60 493.80 22.20L493.80 22.20ZM520.40 42.00L517.70 48.90L516.90 50.90L523.90 56.80L523.20 53.90Q522.50 51.10 520.40 42.00L520.40 42.00ZM529.10 19.70Q530.50 28.40 532.65 37.35Q534.80 46.30 537.90 57.90L537.90 57.90Q540.80 68.90 541.70 72.50L541.70 72.50Q541.80 72.80 541.80 73.40L541.80 73.40Q541.80 75.80 539.10 77.55Q536.40 79.30 533.50 79.30L533.50 79.30Q531.10 79.30 529.80 78.00L529.80 78.00Q526.90 74.90 523.70 72.10Q520.50 69.30 515.30 65.20L515.30 65.20L512 62.50Q507.80 71.50 505.50 75.80L505.50 75.80Q504.80 77.30 501.85 78.55Q498.90 79.80 496.40 79.80L496.40 79.80Q493.60 79.80 493.60 78.00L493.60 78.00Q493.60 77.50 493.90 76.80L493.90 76.80Q496.90 69.40 501 59.80L501 59.80L503.10 54.70Q500.60 52.20 500.60 52.20L500.60 52.20Q499.90 51.50 499.90 50.60L499.90 50.60Q499.90 48.90 502.10 47.35Q504.30 45.80 507 45.30L507 45.30Q511.80 33.80 516 21.90L516 21.90Q516.40 20.50 518.55 19.45Q520.70 18.40 523.10 18.10L523.10 18.10Q524.80 17.60 526 17.60L526 17.60Q528.80 17.60 529.10 19.70L529.10 19.70ZM561.80 46.10L564.70 43.70Q568.60 40.60 571.05 38.20Q573.50 35.80 574.80 33.40L574.80 33.40Q569.40 32.00 558.80 28.80L558.80 28.80L558.30 49.10Q561.30 46.60 561.80 46.10L561.80 46.10ZM580.80 57.70Q581.60 56.10 584.20 54.95Q586.80 53.80 589.20 53.80L589.20 53.80Q592.50 53.80 592.50 55.90L592.50 55.90Q592.50 56.50 592.20 57.30L592.20 57.30Q588.10 66.90 586 75.90L586 75.90Q585.50 77.90 583.10 79.60L583.10 79.60Q582.10 80.90 580.05 81.80Q578 82.70 576 82.70L576 82.70Q574.30 82.70 573.25 82.00Q572.20 81.30 572.10 79.80L572.10 79.80Q571.70 73.30 567.85 67.90Q564 62.50 558 60.90L558 60.90L557.50 75.40Q557.40 77.30 554.35 78.90Q551.30 80.50 548.50 80.50L548.50 80.50Q547 80.50 546.10 79.95Q545.20 79.40 545.20 78.20L545.20 78.20L545.50 64.40Q544.20 63.50 544.20 62.30L544.20 62.30Q544.20 60.90 545.70 59.60L545.70 59.60Q546.20 41.40 546.90 23.30L546.90 23.30Q547 21.20 549.75 19.65Q552.50 18.10 555.30 18.10L555.30 18.10Q557.40 18.10 558.30 19.10L558.30 19.10Q569.20 22.10 580.90 25.70L580.90 25.70Q582.70 25.30 583.40 25.30L583.40 25.30Q585.10 25.30 586.05 26.05Q587 26.80 587 28.30L587 28.30Q587 32.40 584.30 35.85Q581.60 39.30 576.80 43.50L576.80 43.50L574.80 45.30Q570 50.00 565.50 53.60L565.50 53.60Q573.70 55.90 578.70 62.70L578.70 62.70Q579.10 61.70 580.80 57.70L580.80 57.70ZM617.60 42.00L614.90 48.90L614.10 50.90L621.10 56.80L620.40 53.90Q619.70 51.10 617.60 42.00L617.60 42.00ZM626.30 19.70Q627.70 28.40 629.85 37.35Q632 46.30 635.10 57.90L635.10 57.90Q638 68.90 638.90 72.50L638.90 72.50Q639 72.80 639 73.40L639 73.40Q639 75.80 636.30 77.55Q633.60 79.30 630.70 79.30L630.70 79.30Q628.30 79.30 627 78.00L627 78.00Q624.10 74.90 620.90 72.10Q617.70 69.30 612.50 65.20L612.50 65.20L609.20 62.50Q605 71.50 602.70 75.80L602.70 75.80Q602 77.30 599.05 78.55Q596.10 79.80 593.60 79.80L593.60 79.80Q590.80 79.80 590.80 78.00L590.80 78.00Q590.80 77.50 591.10 76.80L591.10 76.80Q594.10 69.40 598.20 59.80L598.20 59.80L600.30 54.70Q597.80 52.20 597.80 52.20L597.80 52.20Q597.10 51.50 597.10 50.60L597.10 50.60Q597.10 48.90 599.30 47.35Q601.50 45.80 604.20 45.30L604.20 45.30Q609 33.80 613.20 21.90L613.20 21.90Q613.60 20.50 615.75 19.45Q617.90 18.40 620.30 18.10L620.30 18.10Q622 17.60 623.20 17.60L623.20 17.60Q626 17.60 626.30 19.70L626.30 19.70ZM667.50 19.70Q669.60 19.50 670.75 20.20Q671.90 20.90 673.20 22.90L673.20 22.90Q674 24.20 674 25.10L674 25.10Q674 27.30 671.20 27.70L671.20 27.70L667.70 28.10Q662.80 28.80 662.50 28.80L662.50 28.80Q660.80 44.80 659.80 56.60Q658.80 68.40 658.50 79.90L658.50 79.90Q658.40 81.30 657.35 82.00Q656.30 82.70 654.60 82.70L654.60 82.70Q651.60 82.70 648.65 81.05Q645.70 79.40 645.80 77.30L645.80 77.30Q646.10 66.70 647 55.65Q647.90 44.60 649.40 30.00L649.40 30.00L643.10 30.80Q641.70 30.90 640.95 30.65Q640.20 30.40 639.50 29.50Q638.80 28.60 638.10 27.50L638.10 27.50Q637.30 26.40 637.30 25.30L637.30 25.30Q637.30 24.40 638 23.70Q638.70 23.00 640.10 22.80L640.10 22.80Q642.30 22.50 645.20 22.10L645.20 22.10L650.30 21.40L652.10 4.10Q652.40 1.30 656.20 1.30L656.20 1.30Q659.20 1.30 662.05 2.95Q664.90 4.60 664.70 6.70L664.70 6.70L663.40 20.10Q666.20 19.90 667.50 19.70L667.50 19.70ZM695.90 25.40Q695.90 23.30 698.50 21.80Q701.10 20.30 703.90 20.30L703.90 20.30Q705.60 20.30 706.60 20.95Q707.60 21.60 707.50 23.00L707.50 23.00Q707.30 31.60 707.10 49.00L707.10 49.00L706.60 75.10Q706.50 77.30 703.85 78.90Q701.20 80.50 698.40 80.50L698.40 80.50Q696.60 80.50 695.55 79.75Q694.50 79.00 694.50 77.50L694.50 77.50L694.90 61.10Q694.50 61.20 693.70 61.20L693.70 61.20L691.70 61.10Q691 61.00 689.60 61.00L689.60 61.00Q688.90 61.00 687.90 61.20L687.90 61.20Q687.40 71.20 686.50 78.20L686.50 78.20Q686.30 80.30 683.45 81.90Q680.60 83.50 677.80 83.50L677.80 83.50Q676.10 83.50 675.15 82.80Q674.20 82.10 674.30 80.70L674.30 80.70Q675.80 66.90 676.20 55.50L676.20 55.50L676.30 52.50Q676.60 43.80 676.60 41.00L676.60 41.00Q676.60 32.00 675.50 29.90L675.50 29.90Q673.90 30.00 673.05 29.35Q672.20 28.70 672.20 27.70L672.20 27.70Q672.20 26.70 673 25.60Q673.80 24.50 675 23.80L675 23.80Q678.80 21.70 681.50 21.70L681.50 21.70Q683.70 21.70 685.40 23.10L685.40 23.10Q688 25.30 688 32.30L688 32.30L687.90 37.30Q688.20 42.40 688.20 47.60L688.20 47.60L688.10 53.50Q688.70 53.30 690 53.50Q691.30 53.70 692 53.70L692 53.70Q692.70 53.70 693.60 53.55Q694.50 53.40 695.20 53.30L695.20 53.30L695.90 25.40Z"></path></svg>